<?xml version="1.0" encoding="UTF-8"?>
<svg width="256px" height="256px" viewBox="0 0 256 256" version="1.1" xmlns="http://www.w3.org/2000/svg" xmlns:xlink="http://www.w3.org/1999/xlink">
    <!-- Generator: Sketch 50.2 (55047) - http://www.bohemiancoding.com/sketch -->
    <title>gi</title>
    <desc>Created with Sketch.</desc>
    <defs></defs>
    <g id="gi" stroke="none" stroke-width="1" fill="none" fill-rule="evenodd">
        <path d="M154.232,81.792 C145.016,87.264 135.224,92.016 118.232,91.584 C98.216,91.584 84.104,102.24 84.104,119.52 C84.104,129.456 87.992,136.224 97.64,141.408 C92.168,144.864 89.144,150.336 89.144,155.952 C89.144,164.016 96.056,171.072 112.76,171.072 L124.856,171.072 C132.488,171.072 135.944,174.24 135.944,178.704 C135.944,183.744 132.632,187.488 118.232,187.488 C103.688,187.488 100.808,184.464 100.808,177.84 L80.648,177.84 C80.648,192.96 88.28,202.464 117.656,202.464 C144.728,202.464 158.552,192.816 158.552,177.12 C158.552,164.304 147.176,154.944 129.464,154.944 L116.792,154.944 C109.448,154.944 108.44,152.64 108.44,150.336 C108.44,148.608 109.304,146.88 110.888,146.016 C113.624,146.592 116.504,146.88 119.816,146.88 C139.544,146.88 152.216,136.08 152.216,121.248 C152.216,111.312 147.032,105.696 137.384,101.52 C147.032,101.52 154.088,100.656 159.416,98.496 L154.232,81.792 Z M118.808,106.416 C126.44,106.416 130.472,110.448 130.472,118.944 C130.472,127.728 126.296,132.336 118.808,132.336 C111.752,132.336 107.144,127.584 107.144,119.232 C107.144,111.312 111.608,106.416 118.808,106.416 Z" id="Fill-2" fill="#000000"></path>
        <path d="M205.64,54 C197.72,54 192.104,59.616 192.104,66.816 C192.104,74.16 197.72,79.632 205.64,79.632 C213.56,79.632 219.032,74.16 219.032,66.816 C219.032,59.616 213.56,54 205.64,54 Z M219.32,94.032 L175.688,94.032 L175.688,109.584 L196.568,109.584 L196.568,154.944 L174.968,154.944 L174.968,170.496 L238.904,170.496 L238.904,154.944 L219.32,154.944 L219.32,94.032 Z" id="Fill-3" fill="#000000"></path>
        <path d="M47.1215383,147.121088 L57,156.99955 L33.00045,181 L27.0001125,174.999662 L27.0001125,167.242514 L47.1215383,147.121088 Z M20.999775,144.999775 L20.999775,169.000225 L9,156.99955 L20.999775,144.999775 Z M42.8789117,142.878462 L27.0001125,158.757261 L27.0001125,138.999437 L33.00045,133 L42.8789117,142.878462 Z" id="Page-1" fill="#FF6600"></path>
    </g>
</svg>