<?xml version="1.0" encoding="UTF-8"?>
<svg width="512px" height="512px" viewBox="0 0 512 512" version="1.1" xmlns="http://www.w3.org/2000/svg" xmlns:xlink="http://www.w3.org/1999/xlink">
    <!-- Generator: Sketch 50.2 (55047) - http://www.bohemiancoding.com/sketch -->
    <title>design-rationale</title>
    <desc>Created with Sketch.</desc>
    <defs></defs>
    <g id="design-rationale" stroke="none" stroke-width="1" fill="none" fill-rule="evenodd">
        <g id="Group" transform="translate(-32.000000, -33.000000)">
            <g id="Grid" transform="translate(32.000000, 33.000000)" stroke="#212121" stroke-linecap="square" stroke-opacity="0.3" stroke-width="0.5">
                <g id="vertical" transform="translate(31.000000, 0.000000)">
                    <path d="M1,0 L1,512" id="v1"></path>
                    <path d="M33,0 L33,512" id="v2"></path>
                    <path d="M65,0 L65,512" id="v3"></path>
                    <path d="M97,0 L97,512" id="v1-copy"></path>
                    <path d="M129,0 L129,512" id="v2-copy"></path>
                    <path d="M161,0 L161,512" id="v3-copy"></path>
                    <path d="M193,0 L193,512" id="v1-copy-2"></path>
                    <path d="M225,0 L225,512" id="v2-copy-2"></path>
                    <path d="M257,0 L257,512" id="v3-copy-2"></path>
                    <path d="M289,0 L289,512" id="v1-copy-3"></path>
                    <path d="M321,0 L321,512" id="v2-copy-3"></path>
                    <path d="M353,0 L353,512" id="v3-copy-3"></path>
                    <path d="M385,0 L385,512" id="v1-copy-4"></path>
                    <path d="M417,0 L417,512" id="v2-copy-4"></path>
                    <path d="M449,0 L449,512" id="v3-copy-4"></path>
                </g>
                <g id="horizontal" transform="translate(256.000000, 255.500000) rotate(90.000000) translate(-256.000000, -255.500000) translate(31.500000, -0.500000)">
                    <path d="M1,0 L1,512" id="v1"></path>
                    <path d="M33,0 L33,512" id="v2"></path>
                    <path d="M65,0 L65,512" id="v3"></path>
                    <path d="M97,0 L97,512" id="v1-copy"></path>
                    <path d="M129,0 L129,512" id="v2-copy"></path>
                    <path d="M161,0 L161,512" id="v3-copy"></path>
                    <path d="M193,0 L193,512" id="v1-copy-2"></path>
                    <path d="M225,0 L225,512" id="v2-copy-2"></path>
                    <path d="M257,0 L257,512" id="v3-copy-2"></path>
                    <path d="M289,0 L289,512" id="v1-copy-3"></path>
                    <path d="M321,0 L321,512" id="v2-copy-3"></path>
                    <path d="M353,0 L353,512" id="v3-copy-3"></path>
                    <path d="M385,0 L385,512" id="v1-copy-4"></path>
                    <path d="M417,0 L417,512" id="v2-copy-4"></path>
                    <path d="M448.25,5.68434189e-14 L448.25,512" id="v3-copy-4"></path>
                </g>
            </g>
            <rect id="master" fill-opacity="0.3" fill="#0066FF" x="160" y="33" width="64" height="512"></rect>
            <rect id="branch" fill-opacity="0.3" fill="#0066FF" transform="translate(373.646753, 203.646753) rotate(45.000000) translate(-373.646753, -203.646753) " x="341.646753" y="-52.353247" width="64" height="512"></rect>
            <circle id="fork" fill-opacity="0.3" fill="#0066FF" cx="192" cy="385" r="32"></circle>
            <path d="M169.692425,362.501817 L191.650148,384.459541 L160,384.459541 C160.264208,375.852381 163.927344,368.100811 169.692425,362.501817 Z" id="slice" fill-opacity="0.2" fill="#EB4D3D"></path>
            <path d="M202.292431,384.799988 L224.250154,406.757712 L192.600006,406.757712 C192.864214,398.150552 196.52735,390.398982 202.292431,384.799988 Z" id="slice-copy" fill-opacity="0.2" fill="#EB4D3D" transform="translate(208.425080, 395.778850) scale(-1, -1) translate(-208.425080, -395.778850) "></path>
            <polygon id="Page-1" fill-opacity="0.8" fill="#FF6600" points="438.629741 183.624941 544 288.9952 288.0048 545 224.0012 480.9964 224.0012 398.253483"></polygon>
            <polygon id="Path" fill-opacity="0.8" fill="#FF6600" points="159.9976 160.9976 159.9976 417.0024 32 288.9952"></polygon>
            <polygon id="Path" fill-opacity="0.8" fill="#FF6600" points="393.375059 138.370259 224.0012 307.744117 224.0012 96.994 288.0048 33"></polygon>
            <g id="TOP#DE7E6CBD-38BC-4C2E-BF4E-19359F592C66#C587BD87-03BF-49EB-8503-676971650BB0" transform="translate(139.000000, 33.000000)" fill="#FF3B30" fill-opacity="0.9">
                <rect id="ruler-start" x="18" y="0" width="5" height="1"></rect>
                <rect id="ruler-end" x="18" y="127" width="5" height="1"></rect>
                <rect id="ruler-line" x="20" y="0" width="1" height="128"></rect>
                <polygon id="label-arrow" points="17 64 21 60 25 64 21 68"></polygon>
                <rect id="label-box" x="0" y="53" width="42" height="22" rx="2"></rect>
            </g>
            <g id="BOTTOM#DE7E6CBD-38BC-4C2E-BF4E-19359F592C66#C587BD87-03BF-49EB-8503-676971650BB0" transform="translate(139.000000, 417.000000)" fill="#FF3B30" fill-opacity="0.9">
                <rect id="ruler-start" x="18" y="0" width="5" height="1"></rect>
                <rect id="ruler-end" x="18" y="127" width="5" height="1"></rect>
                <rect id="ruler-line" x="20" y="0" width="1" height="128"></rect>
                <polygon id="label-arrow" points="17 64 21 60 25 64 21 68"></polygon>
                <rect id="label-box" x="0" y="53" width="42" height="22" rx="2"></rect>
            </g>
            <g id="HORIZONTAL#1DC565DC-BA1B-404B-A0E4-297902143CC3#DE7E6CBD-38BC-4C2E-BF4E-19359F592C66" transform="translate(160.000000, 214.000000)" fill="#FF3B30" fill-opacity="0.9">
                <rect id="ruler-start" x="0" y="8" width="1" height="5"></rect>
                <rect id="ruler-end" x="63" y="8" width="1" height="5"></rect>
                <rect id="ruler-line" x="0" y="10" width="64" height="1"></rect>
                <polygon id="label-arrow" points="28 11 32 7 36 11 32 15"></polygon>
                <rect id="label-box" x="14" y="0" width="35" height="22" rx="2"></rect>
            </g>
            <g id="ANGLE-#1DC565DC-BA1B-404B-A0E4-297902143CC3#DE7E6CBD-38BC-4C2E-BF4E-19359F592C66-Copy" transform="translate(414.405592, 162.405592) rotate(45.000000) translate(-414.405592, -162.405592) translate(382.405592, 151.405592)" fill="#FF3B30" fill-opacity="0.9">
                <rect id="ruler-start" x="5.68434189e-14" y="8" width="1" height="5"></rect>
                <rect id="ruler-end" x="63" y="8" width="1" height="5"></rect>
                <rect id="ruler-line" x="5.68434189e-14" y="10" width="64" height="1"></rect>
                <polygon id="label-arrow" points="28 11 32 7 36 11 32 15"></polygon>
                <rect id="label-box" x="14" y="0" width="35" height="22" rx="2"></rect>
            </g>
            <g id="ROTATION#1DC565DC-BA1B-404B-A0E4-297902143CC3#DE7E6CBD-38BC-4C2E-BF4E-19359F592C66-Copy-2" transform="translate(192.353553, 384.646447) rotate(45.000000) translate(-192.353553, -384.646447) translate(160.353553, 382.146447)" fill="#FF3B30" fill-opacity="0.9">
                <rect id="ruler-start" x="0" y="-1.13686838e-13" width="1" height="5"></rect>
                <rect id="ruler-end" x="63" y="-8.52651283e-14" width="1" height="5"></rect>
                <rect id="ruler-line" x="-5.68434189e-14" y="2" width="64" height="1"></rect>
            </g>
            <g id="ROTATION#1DC565DC-BA1B-404B-A0E4-297902143CC3#DE7E6CBD-38BC-4C2E-BF4E-19359F592C66-Copy" transform="translate(160.000000, 374.000000)" fill="#FF3B30" fill-opacity="0.9">
                <rect id="ruler-start" x="0" y="8" width="1" height="5"></rect>
                <rect id="ruler-end" x="63" y="8" width="1" height="5"></rect>
                <rect id="ruler-line" x="0" y="10" width="64" height="1"></rect>
                <polygon id="label-arrow" points="28 11 32 7 36 11 32 15"></polygon>
                <rect id="label-box" x="14" y="0" width="35" height="22" rx="2"></rect>
            </g>
            <g id="LEFT#1DC565DC-BA1B-404B-A0E4-297902143CC3#C587BD87-03BF-49EB-8503-676971650BB0" transform="translate(32.000000, 119.000000)" fill="#FF3B30" fill-opacity="0.9">
                <rect id="ruler-start" x="0" y="8" width="1" height="5"></rect>
                <rect id="ruler-end" x="191" y="8" width="1" height="5"></rect>
                <rect id="ruler-line" x="0" y="10" width="192" height="1"></rect>
                <polygon id="label-arrow" points="92 11 96 7 100 11 96 15"></polygon>
                <rect id="label-box" x="75" y="0" width="42" height="22" rx="2"></rect>
            </g>
            <g id="LEFT#2BC31EB1-7EF9-4E94-810D-F258A8D63187#C587BD87-03BF-49EB-8503-676971650BB0" transform="translate(32.000000, 439.000000)" fill="#FF3B30" fill-opacity="0.9">
                <rect id="ruler-start" x="0" y="8" width="1" height="5"></rect>
                <rect id="ruler-end" x="191" y="8" width="1" height="5"></rect>
                <rect id="ruler-line" x="0" y="10" width="192" height="1"></rect>
                <polygon id="label-arrow" points="92 11 96 7 100 11 96 15"></polygon>
                <rect id="label-box" x="75" y="0" width="42" height="22" rx="2"></rect>
            </g>
            <g id="WIDTH#C587BD87-03BF-49EB-8503-676971650BB0" transform="translate(32.000000, 278.000000)" fill="#FF3B30" fill-opacity="0.9">
                <rect id="ruler-start" x="0" y="8" width="1" height="5"></rect>
                <rect id="ruler-end" x="511" y="8" width="1" height="5"></rect>
                <rect id="ruler-line" x="0" y="10" width="512" height="1"></rect>
                <polygon id="label-arrow" points="252 11 256 7 260 11 256 15"></polygon>
                <rect id="label-box" x="235" y="0" width="42" height="22" rx="2"></rect>
            </g>
            <g id="HEIGHT#C587BD87-03BF-49EB-8503-676971650BB0" transform="translate(267.000000, 33.000000)" fill="#FF3B30" fill-opacity="0.9">
                <rect id="ruler-start" x="18" y="0" width="5" height="1"></rect>
                <rect id="ruler-end" x="18" y="511" width="5" height="1"></rect>
                <rect id="ruler-line" x="20" y="0" width="1" height="512"></rect>
                <polygon id="label-arrow" points="17 256 21 252 25 256 21 260"></polygon>
                <rect id="label-box" x="0" y="245" width="42" height="22" rx="2"></rect>
            </g>
        </g>
        <g id="45" transform="translate(147.000000, 346.000000)" fill="#FFFFFF">
            <polygon id="Fill-14" points="8 7.91561181 6.91338583 7.91561181 6.91338583 5.33192686 4.80314961 5.33192686 4.53543307 7.91561181 2.56692913 7.91561181 5.13385827 1.77355837 3.02362205 1 0 8.13220816 0 9.74120956 4.51968504 9.74120956 4.53543307 12 6.91338583 12 6.91338583 9.74120956 8 9.74120956"></polygon>
            <path d="M17.5856574,1 L10.8605578,1 L10.8605578,6.76338028 L12.5657371,6.76338028 C13.0438247,6.5 13.5059761,6.40704225 13.9043825,6.40704225 C14.812749,6.40704225 15.4023904,6.91830986 15.4023904,8.25070423 C15.4023904,9.36619718 14.6374502,10.1253521 13.4741036,10.1253521 C12.6932271,10.1253521 11.9760956,9.76901408 11.4501992,9.1028169 L10,10.3887324 C10.812749,11.3647887 12.0717131,12 13.6653386,12 C16.2629482,12 18,10.3887324 18,8.20422535 C18,6.03521127 16.5976096,4.71830986 14.8924303,4.71830986 C14.4143426,4.71830986 13.8087649,4.82676056 13.2669323,5.07464789 L13.2669323,2.75070423 L17.2988048,2.75070423 L17.5856574,1 Z" id="Fill-15"></path>
            <path d="M22.9915966,0 C21.5294118,0 20,0.911764706 20,2.48529412 C20,4.05882353 21.5294118,5 22.9915966,5 C24.4705882,5 26,4.05882353 26,2.48529412 C26,0.911764706 24.4705882,0 22.9915966,0 Z M22.9915966,1.33823529 C23.7142857,1.33823529 24.1680672,1.77941176 24.1680672,2.48529412 C24.1680672,3.17647059 23.7142857,3.63235294 22.9915966,3.63235294 C22.2857143,3.63235294 21.8319328,3.17647059 21.8319328,2.48529412 C21.8319328,1.77941176 22.2857143,1.33823529 22.9915966,1.33823529 Z" id="Fill-16"></path>
        </g>
        <g id="16px" transform="translate(238.000000, 249.000000)" fill="#FFFFFF">
            <polygon id="Fill-1" points="5.90669371 9.0952381 5.90669371 0 3.63488844 0 0 2.15873016 1.0872211 3.88888889 3.40770791 2.46031746 3.40770791 9.0952381 0.697768763 9.0952381 0.697768763 11 8 11 8 9.0952381"></polygon>
            <path d="M14.9206349,4.05494505 C14.1428571,4.05494505 13.2857143,4.4010989 12.6190476,5.09340659 C12.7460317,3 13.6349206,1.86263736 14.8095238,1.86263736 C15.2857143,1.86263736 15.7777778,2.01098901 16.2063492,2.32417582 L17.1587302,0.741758242 C16.5396825,0.296703297 15.7301587,0 14.7777778,0 C11.7936508,0 10,2.7032967 10,6.56043956 C10,9.49450549 11.1746032,12 14.0952381,12 C16.4920635,12 18,10.1373626 18,7.84615385 C18,5.42307692 16.6349206,4.05494505 14.9206349,4.05494505 Z M14.1269841,10.1373626 C13,10.1373626 12.6507937,9.01648352 12.6190476,6.74175824 C13.0793651,6.16483516 13.6825397,5.85164835 14.2698413,5.85164835 C15.047619,5.85164835 15.4920635,6.42857143 15.4920635,7.99450549 C15.4920635,9.18131868 15.0793651,10.1373626 14.1269841,10.1373626 Z" id="Fill-2"></path>
            <path d="M23.8196721,3 C23,3 22.1147541,3.35797665 21.4098361,4.19844358 L21.295082,3.28015564 L19,3.28015564 L19,15 L21.5901639,14.7354086 L21.5901639,10.9533074 C22.1147541,11.5136187 22.8032787,11.8093385 23.6557377,11.8093385 C25.7704918,11.8093385 27,9.94163424 27,7.38910506 C27,4.69649805 26.0819672,3 23.8196721,3 Z M23.0163934,4.82101167 C23.8360656,4.82101167 24.3278689,5.36575875 24.3278689,7.42023346 C24.3278689,9.28793774 23.7868852,10.0038911 22.8688525,10.0038911 C22.3278689,10.0038911 21.9508197,9.77042802 21.5901639,9.27237354 L21.5901639,5.78599222 C21.9672131,5.17898833 22.4098361,4.82101167 23.0163934,4.82101167 Z" id="Fill-3"></path>
            <polygon id="Fill-4" points="30.7679856 11 32.4028777 8.00188324 34.102518 11 37 11 34.0377698 6.70621469 36.5629496 3 33.8435252 3 32.5161871 5.56120527 31.1402878 3 28.2751799 3 30.9460432 6.79661017 28 11"></polygon>
        </g>
        <g id="6px" transform="translate(81.000000, 91.000000)" fill="#FFFFFF">
            <path d="M4.92063492,4.05504949 C4.14285714,4.05504949 3.28571429,4.40121226 2.61904762,5.09353778 C2.74603175,3.00007727 3.63492063,1.86268534 4.80952381,1.86268534 C5.28571429,1.86268534 5.77777778,2.01104081 6.20634921,2.32423569 L7.15873016,0.741777347 C6.53968254,0.296710939 5.73015873,0 4.77777778,0 C1.79365079,0 0,2.70336633 0,6.56029946 C0,9.49444096 1.17460317,12 4.0952381,12 C6.49206349,12 8,10.1373147 8,7.84604686 C8,5.42290753 6.63492063,4.05504949 4.92063492,4.05504949 Z M4.12698413,10.1373147 C3,10.1373147 2.65079365,9.01640667 2.61904762,6.74162281 C3.07936508,6.16468487 3.68253968,5.85148999 4.26984127,5.85148999 C5.04761905,5.85148999 5.49206349,6.42842793 5.49206349,7.99440233 C5.49206349,9.18124608 5.07936508,10.1373147 4.12698413,10.1373147 Z" id="Fill-5"></path>
            <path d="M14.8196721,3 C14,3 13.1147541,3.35798536 12.4098361,4.19847273 L12.295082,3.28016246 L10,3.28016246 L10,15 L12.5901639,14.7354021 L12.5901639,10.953209 C13.1147541,11.5135339 13.8032787,11.8092609 14.6557377,11.8092609 C16.7704918,11.8092609 18,9.94151122 18,7.38891996 C18,4.69653931 17.0819672,3 14.8196721,3 Z M14.0163934,4.82105596 C14.8360656,4.82105596 15.3278689,5.36581629 15.3278689,7.42004913 C15.3278689,9.28779883 14.7868852,10.0037695 13.8688525,10.0037695 C13.3278689,10.0037695 12.9508197,9.77030083 12.5901639,9.27223425 L12.5901639,5.78576814 C12.9672131,5.17904132 13.4098361,4.82105596 14.0163934,4.82105596 Z" id="Fill-6"></path>
            <polygon id="Fill-7" points="21.7679856 11 23.4028777 8.00177737 25.102518 11 28 11 25.0377698 6.70606307 27.5629496 3 24.8435252 3 23.5161871 5.56101322 22.1402878 3 19.2751799 3 21.9460432 6.79646174 19 11"></polygon>
        </g>
        <g id="6px-copy" transform="translate(81.000000, 410.000000)" fill="#FFFFFF">
            <path d="M4.92063492,4.05504949 C4.14285714,4.05504949 3.28571429,4.40121226 2.61904762,5.09353778 C2.74603175,3.00007727 3.63492063,1.86268534 4.80952381,1.86268534 C5.28571429,1.86268534 5.77777778,2.01104081 6.20634921,2.32423569 L7.15873016,0.741777347 C6.53968254,0.296710939 5.73015873,0 4.77777778,0 C1.79365079,0 0,2.70336633 0,6.56029946 C0,9.49444096 1.17460317,12 4.0952381,12 C6.49206349,12 8,10.1373147 8,7.84604686 C8,5.42290753 6.63492063,4.05504949 4.92063492,4.05504949 Z M4.12698413,10.1373147 C3,10.1373147 2.65079365,9.01640667 2.61904762,6.74162281 C3.07936508,6.16468487 3.68253968,5.85148999 4.26984127,5.85148999 C5.04761905,5.85148999 5.49206349,6.42842793 5.49206349,7.99440233 C5.49206349,9.18124608 5.07936508,10.1373147 4.12698413,10.1373147 Z" id="Fill-5"></path>
            <path d="M14.8196721,3 C14,3 13.1147541,3.35798536 12.4098361,4.19847273 L12.295082,3.28016246 L10,3.28016246 L10,15 L12.5901639,14.7354021 L12.5901639,10.953209 C13.1147541,11.5135339 13.8032787,11.8092609 14.6557377,11.8092609 C16.7704918,11.8092609 18,9.94151122 18,7.38891996 C18,4.69653931 17.0819672,3 14.8196721,3 Z M14.0163934,4.82105596 C14.8360656,4.82105596 15.3278689,5.36581629 15.3278689,7.42004913 C15.3278689,9.28779883 14.7868852,10.0037695 13.8688525,10.0037695 C13.3278689,10.0037695 12.9508197,9.77030083 12.5901639,9.27223425 L12.5901639,5.78576814 C12.9672131,5.17904132 13.4098361,4.82105596 14.0163934,4.82105596 Z" id="Fill-6"></path>
            <polygon id="Fill-7" points="21.7679856 11 23.4028777 8.00177737 25.102518 11 28 11 25.0377698 6.70606307 27.5629496 3 24.8435252 3 23.5161871 5.56101322 22.1402878 3 19.2751799 3 21.9460432 6.79646174 19 11"></polygon>
        </g>
        <g id="4px" transform="translate(113.000000, 57.000000)" fill="#FFFFFF">
            <polygon id="Fill-8" points="8 6.91561181 6.91338583 6.91561181 6.91338583 4.33192686 4.80314961 4.33192686 4.53543307 6.91561181 2.56692913 6.91561181 5.13385827 0.773558368 3.02362205 0 0 7.13220816 0 8.74120956 4.51968504 8.74120956 4.53543307 11 6.91338583 11 6.91338583 8.74120956 8 8.74120956"></polygon>
            <path d="M14.8196721,3 C14,3 13.1147541,3.35797665 12.4098361,4.19844358 L12.295082,3.28015564 L10,3.28015564 L10,15 L12.5901639,14.7354086 L12.5901639,10.9533074 C13.1147541,11.5136187 13.8032787,11.8093385 14.6557377,11.8093385 C16.7704918,11.8093385 18,9.94163424 18,7.38910506 C18,4.69649805 17.0819672,3 14.8196721,3 Z M14.0163934,4.82101167 C14.8360656,4.82101167 15.3278689,5.36575875 15.3278689,7.42023346 C15.3278689,9.28793774 14.7868852,10.0038911 13.8688525,10.0038911 C13.3278689,10.0038911 12.9508197,9.77042802 12.5901639,9.27237354 L12.5901639,5.78599222 C12.9672131,5.17898833 13.4098361,4.82101167 14.0163934,4.82101167 Z" id="Fill-9"></path>
            <polygon id="Fill-10" points="21.7679856 11 23.4028777 8.00188324 25.102518 11 28 11 25.0377698 6.70621469 27.5629496 3 24.8435252 3 23.5161871 5.56120527 22.1402878 3 19.2751799 3 21.9460432 6.79661017 19 11"></polygon>
        </g>
        <g id="4px-copy" transform="translate(114.000000, 441.000000)" fill="#FFFFFF">
            <polygon id="Fill-8" points="8 6.91561181 6.91338583 6.91561181 6.91338583 4.33192686 4.80314961 4.33192686 4.53543307 6.91561181 2.56692913 6.91561181 5.13385827 0.773558368 3.02362205 0 0 7.13220816 0 8.74120956 4.51968504 8.74120956 4.53543307 11 6.91338583 11 6.91338583 8.74120956 8 8.74120956"></polygon>
            <path d="M14.8196721,3 C14,3 13.1147541,3.35797665 12.4098361,4.19844358 L12.295082,3.28015564 L10,3.28015564 L10,15 L12.5901639,14.7354086 L12.5901639,10.9533074 C13.1147541,11.5136187 13.8032787,11.8093385 14.6557377,11.8093385 C16.7704918,11.8093385 18,9.94163424 18,7.38910506 C18,4.69649805 17.0819672,3 14.8196721,3 Z M14.0163934,4.82101167 C14.8360656,4.82101167 15.3278689,5.36575875 15.3278689,7.42023346 C15.3278689,9.28793774 14.7868852,10.0038911 13.8688525,10.0038911 C13.3278689,10.0038911 12.9508197,9.77042802 12.5901639,9.27237354 L12.5901639,5.78599222 C12.9672131,5.17898833 13.4098361,4.82101167 14.0163934,4.82101167 Z" id="Fill-9"></path>
            <polygon id="Fill-10" points="21.7679856 11 23.4028777 8.00188324 25.102518 11 28 11 25.0377698 6.70621469 27.5629496 3 24.8435252 3 23.5161871 5.56120527 22.1402878 3 19.2751799 3 21.9460432 6.79661017 19 11"></polygon>
        </g>
        <g id="2px" transform="translate(146.000000, 185.000000)" fill="#FFFFFF">
            <path d="M3.84521385,0 C2.0203666,0 0.847250509,0.727144866 0,1.84106892 L1.56415479,2.97046414 C2.16700611,2.21237693 2.75356415,1.88748242 3.60081466,1.88748242 C4.57841141,1.88748242 5.11608961,2.42897328 5.11608961,3.29535865 C5.11608961,4.57946554 3.92668024,5.84810127 0.228105906,9.26722925 L0.228105906,11 L7.72301426,11 L8,9.12798875 L3.17718941,9.12798875 C6.61507128,6.21940928 7.73930754,4.81153305 7.73930754,3.07876231 C7.73930754,1.43881857 6.41955193,0 3.84521385,0 Z" id="Fill-11"></path>
            <path d="M14.8196721,3 C14,3 13.1147541,3.35797665 12.4098361,4.19844358 L12.295082,3.28015564 L10,3.28015564 L10,15 L12.5901639,14.7354086 L12.5901639,10.9533074 C13.1147541,11.5136187 13.8032787,11.8093385 14.6557377,11.8093385 C16.7704918,11.8093385 18,9.94163424 18,7.38910506 C18,4.69649805 17.0819672,3 14.8196721,3 Z M14.0163934,4.82101167 C14.8360656,4.82101167 15.3278689,5.36575875 15.3278689,7.42023346 C15.3278689,9.28793774 14.7868852,10.0038911 13.8688525,10.0038911 C13.3278689,10.0038911 12.9508197,9.77042802 12.5901639,9.27237354 L12.5901639,5.78599222 C12.9672131,5.17898833 13.4098361,4.82101167 14.0163934,4.82101167 Z" id="Fill-12"></path>
            <polygon id="Fill-13" points="21.7679856 11 23.4028777 8.00188324 25.102518 11 28 11 25.0377698 6.70621469 27.5629496 3 24.8435252 3 23.5161871 5.56120527 22.1402878 3 19.2751799 3 21.9460432 6.79661017 19 11"></polygon>
        </g>
        <g id="2px-copy" transform="translate(382.202796, 129.202796) rotate(45.000000) translate(-382.202796, -129.202796) translate(368.202796, 121.702796)" fill="#FFFFFF">
            <path d="M3.84521385,0 C2.0203666,0 0.847250509,0.727144866 0,1.84106892 L1.56415479,2.97046414 C2.16700611,2.21237693 2.75356415,1.88748242 3.60081466,1.88748242 C4.57841141,1.88748242 5.11608961,2.42897328 5.11608961,3.29535865 C5.11608961,4.57946554 3.92668024,5.84810127 0.228105906,9.26722925 L0.228105906,11 L7.72301426,11 L8,9.12798875 L3.17718941,9.12798875 C6.61507128,6.21940928 7.73930754,4.81153305 7.73930754,3.07876231 C7.73930754,1.43881857 6.41955193,0 3.84521385,0 Z" id="Fill-11"></path>
            <path d="M14.8196721,3 C14,3 13.1147541,3.35797665 12.4098361,4.19844358 L12.295082,3.28015564 L10,3.28015564 L10,15 L12.5901639,14.7354086 L12.5901639,10.9533074 C13.1147541,11.5136187 13.8032787,11.8093385 14.6557377,11.8093385 C16.7704918,11.8093385 18,9.94163424 18,7.38910506 C18,4.69649805 17.0819672,3 14.8196721,3 Z M14.0163934,4.82101167 C14.8360656,4.82101167 15.3278689,5.36575875 15.3278689,7.42023346 C15.3278689,9.28793774 14.7868852,10.0038911 13.8688525,10.0038911 C13.3278689,10.0038911 12.9508197,9.77042802 12.5901639,9.27237354 L12.5901639,5.78599222 C12.9672131,5.17898833 13.4098361,4.82101167 14.0163934,4.82101167 Z" id="Fill-12"></path>
            <polygon id="Fill-13" points="21.7679856 11 23.4028777 8.00188324 25.102518 11 28 11 25.0377698 6.70621469 27.5629496 3 24.8435252 3 23.5161871 5.56120527 22.1402878 3 19.2751799 3 21.9460432 6.79661017 19 11"></polygon>
        </g>
    </g>
</svg>