<?xml version="1.0" encoding="UTF-8"?>
<svg width="1200px" height="300px" viewBox="0 0 1200 300" version="1.1" xmlns="http://www.w3.org/2000/svg" xmlns:xlink="http://www.w3.org/1999/xlink">
    <!-- Generator: Sketch 50.2 (55047) - http://www.bohemiancoding.com/sketch -->
    <title>design-logo</title>
    <desc>Created with Sketch.</desc>
    <defs></defs>
    <g id="design-logo" stroke="none" stroke-width="1" fill="none" fill-rule="evenodd">
        <path d="M531.657435,123.656235 L558,149.9988 L494.0012,214 L478.0003,197.9991 L478.0003,177.313371 L531.657435,123.656235 Z M461.9994,117.9994 L461.9994,182.0006 L430,149.9988 L461.9994,117.9994 Z M520.343765,112.342565 L478.0003,154.686029 L478.0003,101.9985 L494.0012,86 L520.343765,112.342565 Z" id="Page-1" fill="#FF6600"></path>
        <path d="M635.32,111.16 C627.64,115.72 619.48,119.68 605.32,119.32 C588.64,119.32 576.88,128.2 576.88,142.6 C576.88,150.88 580.12,156.52 588.16,160.84 C583.6,163.72 581.08,168.28 581.08,172.96 C581.08,179.68 586.84,185.56 600.76,185.56 L610.84,185.56 C617.2,185.56 620.08,188.2 620.08,191.92 C620.08,196.12 617.32,199.24 605.32,199.24 C593.2,199.24 590.8,196.72 590.8,191.2 L574,191.2 C574,203.8 580.36,211.72 604.84,211.72 C627.4,211.72 638.92,203.68 638.92,190.6 C638.92,179.92 629.44,172.12 614.68,172.12 L604.12,172.12 C598,172.12 597.16,170.2 597.16,168.28 C597.16,166.84 597.88,165.4 599.2,164.68 C601.48,165.16 603.88,165.4 606.64,165.4 C623.08,165.4 633.64,156.4 633.64,144.04 C633.64,135.76 629.32,131.08 621.28,127.6 C629.32,127.6 635.2,126.88 639.64,125.08 L635.32,111.16 Z M605.8,131.68 C612.16,131.68 615.52,135.04 615.52,142.12 C615.52,149.44 612.04,153.28 605.8,153.28 C599.92,153.28 596.08,149.32 596.08,142.36 C596.08,135.76 599.8,131.68 605.8,131.68 Z M678.16,88 C684.76,88 689.32,92.68 689.32,98.68 C689.32,104.8 684.76,109.36 678.16,109.36 C671.56,109.36 666.88,104.8 666.88,98.68 C666.88,92.68 671.56,88 678.16,88 Z M689.56,121.36 L689.56,172.12 L705.88,172.12 L705.88,185.08 L652.6,185.08 L652.6,172.12 L670.6,172.12 L670.6,134.32 L653.2,134.32 L653.2,121.36 L689.56,121.36 Z M780.04,181.36 C775,184.6 767.92,187.12 759.16,187.12 C742.48,187.12 734.56,178 734.56,163.36 L734.56,134.44 L721.24,134.44 L721.24,121.36 L734.56,121.36 L734.56,107.56 L753.52,105.28 L753.52,121.36 L774.04,121.36 L772.12,134.44 L753.52,134.44 L753.52,163.36 C753.52,169.72 756.28,172.12 762.64,172.12 C767.08,172.12 770.8,170.92 773.8,169.24 L780.04,181.36 Z" id="git" fill="#000000"></path>
    </g>
</svg>