<?xml version="1.0" encoding="UTF-8"?>
<svg width="320px" height="320px" viewBox="0 0 320 320" version="1.1" xmlns="http://www.w3.org/2000/svg" xmlns:xlink="http://www.w3.org/1999/xlink">
    <!-- Generator: Sketch 50.2 (55047) - http://www.bohemiancoding.com/sketch -->
    <title>git-full-color-light-background-stacked</title>
    <desc>Created with Sketch.</desc>
    <defs></defs>
    <g id="git-full-color-light-background-stacked" stroke="none" stroke-width="1" fill="none" fill-rule="evenodd">
        <path d="M197.657435,67.6562354 L224,93.9988 L160.0012,158 L144.0003,141.9991 L144.0003,121.313371 L197.657435,67.6562354 Z M127.9994,61.9994 L127.9994,126.0006 L96,93.9988 L127.9994,61.9994 Z M186.343765,56.3425646 L144.0003,98.6860293 L144.0003,45.9985 L160.0012,30 L186.343765,56.3425646 Z" id="Page-1" fill="#FF6600"></path>
        <path d="M118.32,197.16 C110.64,201.72 102.48,205.68 88.32,205.32 C71.64,205.32 59.88,214.2 59.88,228.6 C59.88,236.88 63.12,242.52 71.16,246.84 C66.6,249.72 64.08,254.28 64.08,258.96 C64.08,265.68 69.84,271.56 83.76,271.56 L93.84,271.56 C100.2,271.56 103.08,274.2 103.08,277.92 C103.08,282.12 100.32,285.24 88.32,285.24 C76.2,285.24 73.8,282.72 73.8,277.2 L57,277.2 C57,289.8 63.36,297.72 87.84,297.72 C110.4,297.72 121.92,289.68 121.92,276.6 C121.92,265.92 112.44,258.12 97.68,258.12 L87.12,258.12 C81,258.12 80.16,256.2 80.16,254.28 C80.16,252.84 80.88,251.4 82.2,250.68 C84.48,251.16 86.88,251.4 89.64,251.4 C106.08,251.4 116.64,242.4 116.64,230.04 C116.64,221.76 112.32,217.08 104.28,213.6 C112.32,213.6 118.2,212.88 122.64,211.08 L118.32,197.16 Z M88.8,217.68 C95.16,217.68 98.52,221.04 98.52,228.12 C98.52,235.44 95.04,239.28 88.8,239.28 C82.92,239.28 79.08,235.32 79.08,228.36 C79.08,221.76 82.8,217.68 88.8,217.68 Z M161.16,174 C167.76,174 172.32,178.68 172.32,184.68 C172.32,190.8 167.76,195.36 161.16,195.36 C154.56,195.36 149.88,190.8 149.88,184.68 C149.88,178.68 154.56,174 161.16,174 Z M172.56,207.36 L172.56,258.12 L188.88,258.12 L188.88,271.08 L135.6,271.08 L135.6,258.12 L153.6,258.12 L153.6,220.32 L136.2,220.32 L136.2,207.36 L172.56,207.36 Z M263.04,267.36 C258,270.6 250.92,273.12 242.16,273.12 C225.48,273.12 217.56,264 217.56,249.36 L217.56,220.44 L204.24,220.44 L204.24,207.36 L217.56,207.36 L217.56,193.56 L236.52,191.28 L236.52,207.36 L257.04,207.36 L255.12,220.44 L236.52,220.44 L236.52,249.36 C236.52,255.72 239.28,258.12 245.64,258.12 C250.08,258.12 253.8,256.92 256.8,255.24 L263.04,267.36 Z" id="git" fill="#000000"></path>
    </g>
</svg>