<?xml version="1.0" encoding="UTF-8"?>
<svg width="400px" height="160px" viewBox="0 0 400 160" version="1.1" xmlns="http://www.w3.org/2000/svg" xmlns:xlink="http://www.w3.org/1999/xlink">
    <!-- Generator: Sketch 50.2 (55047) - http://www.bohemiancoding.com/sketch -->
    <title>git-full-color-light-background</title>
    <desc>Created with Sketch.</desc>
    <defs></defs>
    <g id="git-full-color-light-background" stroke="none" stroke-width="1" fill="none" fill-rule="evenodd">
        <path d="M130.657435,53.6562354 L157,79.9988 L93.0012,144 L77.0003,127.9991 L77.0003,107.313371 L130.657435,53.6562354 Z M60.9994,47.9994 L60.9994,112.0006 L29,79.9988 L60.9994,47.9994 Z M119.343765,42.3425646 L77.0003,84.6860293 L77.0003,31.9985 L93.0012,16 L119.343765,42.3425646 Z" id="Page-1" fill="#FF6600"></path>
        <path d="M234.32,41.16 C226.64,45.72 218.48,49.68 204.32,49.32 C187.64,49.32 175.88,58.2 175.88,72.6 C175.88,80.88 179.12,86.52 187.16,90.84 C182.6,93.72 180.08,98.28 180.08,102.96 C180.08,109.68 185.84,115.56 199.76,115.56 L209.84,115.56 C216.2,115.56 219.08,118.2 219.08,121.92 C219.08,126.12 216.32,129.24 204.32,129.24 C192.2,129.24 189.8,126.72 189.8,121.2 L173,121.2 C173,133.8 179.36,141.72 203.84,141.72 C226.4,141.72 237.92,133.68 237.92,120.6 C237.92,109.92 228.44,102.12 213.68,102.12 L203.12,102.12 C197,102.12 196.16,100.2 196.16,98.28 C196.16,96.84 196.88,95.4 198.2,94.68 C200.48,95.16 202.88,95.4 205.64,95.4 C222.08,95.4 232.64,86.4 232.64,74.04 C232.64,65.76 228.32,61.08 220.28,57.6 C228.32,57.6 234.2,56.88 238.64,55.08 L234.32,41.16 Z M204.8,61.68 C211.16,61.68 214.52,65.04 214.52,72.12 C214.52,79.44 211.04,83.28 204.8,83.28 C198.92,83.28 195.08,79.32 195.08,72.36 C195.08,65.76 198.8,61.68 204.8,61.68 Z M277.16,18 C283.76,18 288.32,22.68 288.32,28.68 C288.32,34.8 283.76,39.36 277.16,39.36 C270.56,39.36 265.88,34.8 265.88,28.68 C265.88,22.68 270.56,18 277.16,18 Z M288.56,51.36 L288.56,102.12 L304.88,102.12 L304.88,115.08 L251.6,115.08 L251.6,102.12 L269.6,102.12 L269.6,64.32 L252.2,64.32 L252.2,51.36 L288.56,51.36 Z M379.04,111.36 C374,114.6 366.92,117.12 358.16,117.12 C341.48,117.12 333.56,108 333.56,93.36 L333.56,64.44 L320.24,64.44 L320.24,51.36 L333.56,51.36 L333.56,37.56 L352.52,35.28 L352.52,51.36 L373.04,51.36 L371.12,64.44 L352.52,64.44 L352.52,93.36 C352.52,99.72 355.28,102.12 361.64,102.12 C366.08,102.12 369.8,100.92 372.8,99.24 L379.04,111.36 Z" id="git" fill="#000000"></path>
    </g>
</svg>