<?xml version="1.0" encoding="UTF-8"?>
<svg width="350px" height="350px" viewBox="0 0 350 350" version="1.1" xmlns="http://www.w3.org/2000/svg" xmlns:xlink="http://www.w3.org/1999/xlink">
    <!-- Generator: Sketch 50.2 (55047) - http://www.bohemiancoding.com/sketch -->
    <title>horizontal-lockup</title>
    <desc>Created with Sketch.</desc>
    <defs></defs>
    <g id="horizontal-lockup" stroke="none" stroke-width="1" fill="none" fill-rule="evenodd">
        <path d="M101.657435,149.363342 L48.5003,202.520477 L48.5003,222.791993 L64.0011934,238.292887 L127.2929,174.998807 L101.657435,149.363342 Z M31.4994,144.206507 L0.707093523,174.998813 L31.4994,205.793429 L31.4994,144.206507 Z M89.6366579,137.342565 L64.0011735,111.70708 L48.5003,127.205629 L48.5003,178.478923 L89.6366579,137.342565 Z" id="Page-1" stroke="#171219"></path>
        <circle id="fork" fill-opacity="0.3" fill="#0066FF" cx="40" cy="175" r="8"></circle>
        <circle id="fork-copy" fill-opacity="0.3" fill="#0066FF" cx="136" cy="175" r="8"></circle>
        <path d="M205.32,136.16 C197.64,140.72 189.48,144.68 175.32,144.32 C158.64,144.32 146.88,153.2 146.88,167.6 C146.88,175.88 150.12,181.52 158.16,185.84 C153.6,188.72 151.08,193.28 151.08,197.96 C151.08,204.68 156.84,210.56 170.76,210.56 L180.84,210.56 C187.2,210.56 190.08,213.2 190.08,216.92 C190.08,221.12 187.32,224.24 175.32,224.24 C163.2,224.24 160.8,221.72 160.8,216.2 L144,216.2 C144,228.8 150.36,236.72 174.84,236.72 C197.4,236.72 208.92,228.68 208.92,215.6 C208.92,204.92 199.44,197.12 184.68,197.12 L174.12,197.12 C168,197.12 167.16,195.2 167.16,193.28 C167.16,191.84 167.88,190.4 169.2,189.68 C171.48,190.16 173.88,190.4 176.64,190.4 C193.08,190.4 203.64,181.4 203.64,169.04 C203.64,160.76 199.32,156.08 191.28,152.6 C199.32,152.6 205.2,151.88 209.64,150.08 L205.32,136.16 Z M175.8,156.68 C182.16,156.68 185.52,160.04 185.52,167.12 C185.52,174.44 182.04,178.28 175.8,178.28 C169.92,178.28 166.08,174.32 166.08,167.36 C166.08,160.76 169.8,156.68 175.8,156.68 Z M248.16,113 C254.76,113 259.32,117.68 259.32,123.68 C259.32,129.8 254.76,134.36 248.16,134.36 C241.56,134.36 236.88,129.8 236.88,123.68 C236.88,117.68 241.56,113 248.16,113 Z M259.56,146.36 L259.56,197.12 L275.88,197.12 L275.88,210.08 L222.6,210.08 L222.6,197.12 L240.6,197.12 L240.6,159.32 L223.2,159.32 L223.2,146.36 L259.56,146.36 Z M350.04,206.36 C345,209.6 337.92,212.12 329.16,212.12 C312.48,212.12 304.56,203 304.56,188.36 L304.56,159.44 L291.24,159.44 L291.24,146.36 L304.56,146.36 L304.56,132.56 L323.52,130.28 L323.52,146.36 L344.04,146.36 L342.12,159.44 L323.52,159.44 L323.52,188.36 C323.52,194.72 326.28,197.12 332.64,197.12 C337.08,197.12 340.8,195.92 343.8,194.24 L350.04,206.36 Z" id="git" stroke="#111111"></path>
    </g>
</svg>