<?xml version="1.0" encoding="UTF-8"?>
<svg width="350px" height="350px" viewBox="0 0 350 350" version="1.1" xmlns="http://www.w3.org/2000/svg" xmlns:xlink="http://www.w3.org/1999/xlink">
    <!-- Generator: Sketch 50.2 (55047) - http://www.bohemiancoding.com/sketch -->
    <title>stacked-lockup</title>
    <desc>Created with Sketch.</desc>
    <defs></defs>
    <g id="stacked-lockup" stroke="none" stroke-width="1" fill="none" fill-rule="evenodd">
        <path d="M212.657435,83.3633421 L159.5003,136.520477 L159.5003,156.791993 L175.001193,172.292887 L238.2929,108.998807 L212.657435,83.3633421 Z M142.4994,78.2065068 L111.707094,108.998813 L142.4994,139.793429 L142.4994,78.2065068 Z M200.636658,71.3425646 L175.001173,45.7070803 L159.5003,61.2056287 L159.5003,112.478923 L200.636658,71.3425646 Z" id="Page-1" stroke="#111111"></path>
        <circle id="fork-copy" fill-opacity="0.3" fill="#0066FF" cx="175" cy="109" r="8"></circle>
        <circle id="fork-copy-2" fill-opacity="0.3" fill="#0066FF" cx="175" cy="181" r="8"></circle>
        <path d="M133.32,212.16 C125.64,216.72 117.48,220.68 103.32,220.32 C86.64,220.32 74.88,229.2 74.88,243.6 C74.88,251.88 78.12,257.52 86.16,261.84 C81.6,264.72 79.08,269.28 79.08,273.96 C79.08,280.68 84.84,286.56 98.76,286.56 L108.84,286.56 C115.2,286.56 118.08,289.2 118.08,292.92 C118.08,297.12 115.32,300.24 103.32,300.24 C91.2,300.24 88.8,297.72 88.8,292.2 L72,292.2 C72,304.8 78.36,312.72 102.84,312.72 C125.4,312.72 136.92,304.68 136.92,291.6 C136.92,280.92 127.44,273.12 112.68,273.12 L102.12,273.12 C96,273.12 95.16,271.2 95.16,269.28 C95.16,267.84 95.88,266.4 97.2,265.68 C99.48,266.16 101.88,266.4 104.64,266.4 C121.08,266.4 131.64,257.4 131.64,245.04 C131.64,236.76 127.32,232.08 119.28,228.6 C127.32,228.6 133.2,227.88 137.64,226.08 L133.32,212.16 Z M103.8,232.68 C110.16,232.68 113.52,236.04 113.52,243.12 C113.52,250.44 110.04,254.28 103.8,254.28 C97.92,254.28 94.08,250.32 94.08,243.36 C94.08,236.76 97.8,232.68 103.8,232.68 Z M176.16,189 C182.76,189 187.32,193.68 187.32,199.68 C187.32,205.8 182.76,210.36 176.16,210.36 C169.56,210.36 164.88,205.8 164.88,199.68 C164.88,193.68 169.56,189 176.16,189 Z M187.56,222.36 L187.56,273.12 L203.88,273.12 L203.88,286.08 L150.6,286.08 L150.6,273.12 L168.6,273.12 L168.6,235.32 L151.2,235.32 L151.2,222.36 L187.56,222.36 Z M278.04,282.36 C273,285.6 265.92,288.12 257.16,288.12 C240.48,288.12 232.56,279 232.56,264.36 L232.56,235.44 L219.24,235.44 L219.24,222.36 L232.56,222.36 L232.56,208.56 L251.52,206.28 L251.52,222.36 L272.04,222.36 L270.12,235.44 L251.52,235.44 L251.52,264.36 C251.52,270.72 254.28,273.12 260.64,273.12 C265.08,273.12 268.8,271.92 271.8,270.24 L278.04,282.36 Z" id="git" stroke="#111111"></path>
    </g>
</svg>